# xmcd
#
# Track frame offsets:
#	150
#	5075
#	21477
#	36264
#	53467
#	73913
#	89911
#	106201
#	123042
#	142659
#	159645
#	181339
#	198977
#
# Disc length: 2847 seconds
#
# Revision: 0
# Processed by: cddbd v1.5.1PL2 Copyright (c) Steve Scherf et al.
# Submitted via: EasyCDDAExtractor 9.1.3.1
#
DISCID=af0b1d0d
DTITLE=Christina Milian - It's About Time
DYEAR=2004
DGENRE=Blues
TTITLE0=Intro
TTITLE1=Dip It Low
TTITLE2=I Need More
TTITLE3=Whatever You Want
TTITLE4=Someday One Day
TTITLE5=Highway
TTITLE6=Get Loose
TTITLE7=I'm Sorry
TTITLE8=L.o.v.e
TTITLE9=Peanut Butter and Jelly
TTITLE10=Miss You Like Crazy
TTITLE11=Oh Daddy
TTITLE12=I Can Be That Woman
EXTD=
EXTT0=
EXTT1=
EXTT2=
EXTT3=
EXTT4=
EXTT5=
EXTT6=
EXTT7=
EXTT8=
EXTT9=
EXTT10=
EXTT11=
EXTT12=
PLAYORDER=
